<?xml version="1.0" encoding="UTF-8"?> <svg xmlns="http://www.w3.org/2000/svg" viewBox="0 0 59.59 15.23"> <defs> <style>.cls-1{fill:#fdf5df;}</style> </defs> <g id="Слой_2" data-name="Слой 2"> <g id="OBJECTS"> <path class="cls-1" d="M53.66,11.28l3.85-8.94h-.4c-6.64,8-16.64,13.19-27,12.88C19.41,14.9,6.9,14.15.06,4.76c-.23-.32.3-.73.54-.42C7.49,13.05,19,13.51,29.25,13.77A33.72,33.72,0,0,0,54.94,2.35l-6.58,0a.85.85,0,0,1,0-1.69L57.28,0a.86.86,0,0,1,.82.66h.68a.86.86,0,0,1,.73,1.27q-2.2,5.1-4.4,10.21C54.69,13.12,53.24,12.26,53.66,11.28Z"></path> </g> </g> </svg> 