<?xml version="1.0" encoding="UTF-8"?> <svg xmlns="http://www.w3.org/2000/svg" viewBox="0 0 151.02 34.26"> <defs> <style>.cls-1{fill:#f0bb78;}</style> </defs> <g id="Слой_2" data-name="Слой 2"> <g id="Elements"> <path class="cls-1" d="M49.2,21.32c14.19,0,28.18-1.2,42.32-1.87,7.55-.35,15.13-.8,22.71-.85,3.82,0,7.64.13,11.45-.11,3.15-.2,8.43.77,11.14-.54-3.48-1.89-7.55-3.67-11.21-5.28-6.19-2.7.59-2.31,3.68-1.11,4.38,1.69,8.53,3.53,13.17,4.43,2.07.4,8.94.24,8.54,3.52-.3,2.46-7.63,5.91-9.62,7.23-3.06,2-7.22,6.56-10.82,7.37-4.86,1.09,1.19-4.13,2.3-5.07,2.9-2.45,7.13-5.4,9.46-8.35-2.41-.7-6.43.14-8.95.27-4.26.22-8.52.58-12.77.74-6.85.26-13.69.75-20.54,1.34-15,1.26-30,2.5-45.05,2.63-13.92.12-28.68.64-42.2-3.18C7.88,21.09-2.56,17.82.58,10.63,3.26,4.5,13.47,2.92,19.16,1.87A136.1,136.1,0,0,1,41.57,0c1.5,0,21.56,1.24,20.77,3.57-.34,1-9-.56-10.21-.69-5.22-.52-10.54.07-15.74.31-9.28.42-22,.95-29.86,6.53-8.63,6.1,9.11,9.42,13.08,10A208.69,208.69,0,0,0,49.2,21.32Z"></path> </g> </g> </svg> 