<?xml version="1.0" encoding="UTF-8"?> <svg xmlns="http://www.w3.org/2000/svg" width="30" height="30" viewBox="0 0 30 30" fill="none"> <path d="M19.9991 2H10.0011C9.2941 2 8.8101 2.715 9.0731 3.371L10.0001 6H20.0001L20.9271 3.371C21.1901 2.715 20.7061 2 19.9991 2Z" fill="#8CA57D"></path> <path d="M20 8H10C10 8 3 14 3 21C3 25 6 27 8 27C10 27 15 27 15 27C15 27 20 27 22 27C24 27 27 25 27 21C27 14 20 8 20 8ZM16 21.898V23.5H14V21.903C12.529 21.627 11.604 20.723 11.55 19.402H13.282C13.365 20.096 14.065 20.541 15.074 20.541C16.005 20.541 16.664 20.09 16.664 19.443C16.664 18.897 16.237 18.583 15.187 18.357L14.072 18.12C12.512 17.794 11.746 16.981 11.746 15.676C11.746 14.363 12.615 13.427 14 13.119V11.5H16V13.116C17.35 13.418 18.252 14.338 18.296 15.581H16.611C16.528 14.905 15.899 14.454 15.033 14.454C14.137 14.454 13.544 14.869 13.544 15.522C13.544 16.05 13.953 16.353 14.956 16.566L15.988 16.786C17.709 17.148 18.45 17.89 18.45 19.218C18.45 20.648 17.532 21.607 16 21.898Z" fill="#8CA57D"></path> <path d="M18 4H12C12 2.343 13.343 1 15 1C16.657 1 18 2.343 18 4Z" fill="#8CA57D"></path> </svg> 