<?xml version="1.0" encoding="UTF-8"?> <svg xmlns="http://www.w3.org/2000/svg" width="131" height="11" viewBox="0 0 131 11" fill="none"> <g clip-path="url(#clip0_34_3145)"> <path d="M1.12354 1.46066C4.68956 1.75053 8.27953 1.74109 11.8474 1.72934C33.4122 1.65834 54.957 1.13621 76.5246 1.08345C90.1202 1.05019 103.714 1.11266 117.314 1.25702C119.127 1.27626 120.94 1.29 122.753 1.36589C123.688 1.40504 120.931 1.68349 120.012 1.80955C106.488 3.66466 92.7595 5.58259 79.662 8.93956C79.3385 9.02249 78.4418 9.35671 78.7825 9.35999C80.8281 9.37972 83.1673 8.83907 85.1197 8.58975C99.7903 6.71635 114.382 6.2437 129.239 6.16177" stroke="#8CA57D" stroke-width="2" stroke-linecap="round"></path> </g> <defs> <clipPath id="clip0_34_3145"> <rect width="131" height="11" fill="white"></rect> </clipPath> </defs> </svg> 