<?xml version="1.0" encoding="UTF-8"?> <svg xmlns="http://www.w3.org/2000/svg" width="215" height="186" viewBox="0 0 215 186" fill="none"> <g clip-path="url(#clip0_93_8095)"> <path d="M30.796 154.117C31.8732 153.54 32.6293 153.965 33.4211 154.066C40.8049 154.969 48.3133 155.271 56.06 154.439C67 153.251 77.737 150.383 88.0588 145.013C103.643 136.906 112.985 124.893 116.002 109.063C116.158 108.246 116.319 107.428 116.495 106.495C117.372 106.406 118.139 106.313 118.905 106.249C129.751 105.399 140.692 101.735 150.537 95.656C160.92 89.3309 168.986 80.9977 175.417 71.1334C181.243 62.2015 185.036 52.7888 187.71 43.1077C189.416 36.9905 190.73 30.8687 190.664 24.7846C190.665 23.2348 190.573 21.7023 190.388 20.1943C190.18 18.6304 189.247 18.0731 187.947 18.4656C186.845 18.7997 186.285 19.6944 186.36 21.2749C186.677 28.0458 185.365 34.8979 183.55 41.7732C180.986 51.4638 177.226 60.8805 171.364 69.8109C166.049 77.9055 159.452 84.8903 151.192 90.4421C141.091 97.2299 130.341 101.13 118.929 101.927C118.265 101.97 117.615 101.907 116.845 101.894C116.82 100.915 116.793 100.023 116.783 99.1255C116.725 92.9259 115.677 86.9409 113.672 81.3674C112.455 78.0007 110.594 74.9657 108.168 72.3935C106.657 70.7324 104.637 69.5589 102.307 68.9878C97.4324 67.8478 92.4871 69.7905 89.1061 74.2021C86.9061 77.0613 85.5844 80.3466 85.3248 83.6025C84.8095 89.2212 86.6297 93.8254 90.0163 97.6873C92.7733 100.831 96.3838 102.979 100.575 104.362C103.417 105.297 106.417 105.913 109.521 106.199C110.255 106.267 110.982 106.372 111.904 106.484C111.549 108.41 111.313 110.261 110.852 112.107C108.465 121.614 103.081 129.721 94.6345 136.223C89.3986 140.247 83.5213 143.019 77.4544 145.235C65.0612 149.738 52.7716 151.307 40.6116 150.309C36.9445 150.005 33.3632 149.384 29.7542 148.888C29.2243 148.783 28.7078 148.645 28.2069 148.478C28.6849 147.686 29.3163 147.851 29.8449 147.745C35.0147 146.719 40.1862 145.719 45.356 144.693C46.5133 144.465 47.2618 143.71 47.3901 142.752C47.4438 142.284 47.3217 141.844 47.0466 141.509C46.7708 141.175 46.3598 140.967 45.885 140.922C45.1303 140.885 44.355 140.943 43.5798 141.093C39.9662 141.711 36.3503 142.378 32.7366 142.996C26.6776 144.069 20.6253 144.728 14.6267 144.969C14.0517 144.962 13.4684 144.999 12.8819 145.082C10.9721 145.449 9.92324 147.405 10.9828 148.715C11.4325 149.227 12.0095 149.622 12.6769 149.875C19.3547 152.575 25.3518 156.192 31.0076 160.272C32.6356 161.454 34.1686 162.708 35.7846 163.899C36.4734 164.423 37.2192 164.881 38.0136 165.27C38.3836 165.44 38.8296 165.47 39.2749 165.354C39.7202 165.237 40.1366 164.982 40.453 164.631C40.7939 164.305 41.0197 163.893 41.0902 163.47C41.1607 163.048 41.0711 162.642 40.8369 162.33C40.2812 161.569 39.6284 160.885 38.889 160.288C36.5529 158.487 34.1766 156.741 31.8191 154.968C31.4812 154.709 31.1719 154.428 30.796 154.117ZM112.031 101.782C105.173 101.909 97.7105 98.9949 93.825 94.6736C91.4834 92.0646 90.0103 88.9837 89.8307 85.2543C89.6766 82.2737 90.4264 79.3615 92.4374 76.5976C94.5833 73.6392 97.6535 72.3666 100.752 73.3212C101.937 73.735 103.014 74.3342 103.945 75.0971C106.195 76.818 107.534 79.2522 108.643 81.7882C111.162 87.549 112.176 93.8451 112.216 100.448C112.187 100.89 112.126 101.336 112.031 101.782Z" fill="#97A87B"></path> </g> <defs> <clipPath id="clip0_93_8095"> <rect width="221" height="64" fill="white" transform="translate(214.819 51.5645) rotate(142.738)"></rect> </clipPath> </defs> </svg> 