<?xml version="1.0" encoding="UTF-8"?> <svg xmlns="http://www.w3.org/2000/svg" width="259" height="273" viewBox="0 0 259 273" fill="none"> <g clip-path="url(#clip0_151_18)"> <path d="M116.08 269.642C120.087 271.785 125.117 271.772 129.125 269.629C238.341 210.879 246.098 96.0959 246.002 63.4587C245.991 60.8356 245.217 58.2725 243.775 56.0832C242.331 53.8939 240.282 52.1736 237.878 51.1328L128.144 2.45695C126.397 1.68612 124.509 1.28916 122.601 1.29151C120.693 1.29386 118.805 1.69547 117.061 2.4706L8.09026 51.1464C5.72105 52.1878 3.70071 53.8891 2.26996 56.0479C0.83919 58.2066 0.0583194 60.7317 0.0203677 63.3222C-0.443107 95.7956 6.08641 210.824 116.08 269.642ZM77.7203 113.199L108.978 144.499L167.498 85.8993L186.773 105.2L108.978 183.101L58.4453 132.5L77.7203 113.199Z" fill="#8CA57D"></path> </g> <defs> <clipPath id="clip0_151_18"> <rect width="259" height="273" fill="white"></rect> </clipPath> </defs> </svg> 