<?xml version="1.0" encoding="UTF-8"?> <svg xmlns="http://www.w3.org/2000/svg" viewBox="0 0 462.55 398.3"> <defs> <style>.cls-1{fill:#291b15;}</style> </defs> <g id="Слой_2" data-name="Слой 2"> <g id="Capa_1" data-name="Capa 1"> <path class="cls-1" d="M404.57,364.67c-.12,1.46-.32,2.92-.54,4.46-.82,5.63-2,12.43,1.29,20.05.36.83.77,1.66,1.22,2.47,5.39,9.92,11.31,6.69,17.21,3.35,16.65-9.26,30.25-152.37,36-177.92,6.05-26.21,1.24-54.48-4.62-72.43-8.55-27.51-27.29-59.23-52.93-84.48-25.42-25.54-57.75-44.62-88.49-53.26-31.83-9.13-60.56-8-82.8-.82C208.12-3.29,174-.75,150.19,6.4c-6,1.69-12.09,3.74-18.14,6.11C98.79,25.43,67.26,48.68,44,77.52c-21.38,26.26-34.67,55-40.5,81C-6.37,201.78,5.73,366,26.87,385.09c.74.7,1.53,1.47,2.37,2.28,6.15,6,14.06,13.15,20.82,10.05,2.52-1.14,4.72-3.59,6.47-7.07,4.17-8.28,3-16.55,2.26-23.32-.12-1.13-.24-2.26-.32-3.37-1.16-15.85-.29-160.19,7.07-178.59,1.74,6.83,5.59,13.39,10.33,15.13C79.76,201.62,84,200,88,195.66l.42-.47c3.77-4.38,6.32-12.93,10.56-24.28,1.18-3.15,2.36-6.11,3.36-8.19C108.47,150,115,141,120.54,135.63a48.81,48.81,0,0,1,9.69-7.15,103.56,103.56,0,0,1,11.44-5.54c4.18-1.78,8.52-3.45,12.89-5.28l.21-.09c27.4-11.44,51.75-44.31,76.89-56.33,16.41,8.76,41.53,42,76.59,56.55l.44.19c4.17,1.76,8.32,3.24,12.32,4.81a84.06,84.06,0,0,1,11.45,5.32c.91.52,1.78,1.06,2.61,1.61,11.58,7.72,18.09,18.76,23.93,30.68.38.77.76,1.54,1.13,2.32,1,2.08,2.18,5,3.36,8.18,4.24,11.35,6.79,19.91,10.56,24.29l.42.47c3.68,3.9,7.35,5.68,10.86,5,5.65-1.08,9.59-8.76,11.54-15.63C403.34,201.88,405.94,346.46,404.57,364.67Z"></path> </g> </g> </svg> 