<?xml version="1.0" encoding="UTF-8"?> <svg xmlns="http://www.w3.org/2000/svg" width="113" height="113" viewBox="0 0 113 113" fill="none"> <g clip-path="url(#clip0_189_589)"> <path fill-rule="evenodd" clip-rule="evenodd" d="M56.5 0C87.6831 0 113 25.3169 113 56.5C113 87.6831 87.6831 113 56.5 113C25.3169 113 0 87.6831 0 56.5C0 25.3169 25.3169 0 56.5 0ZM56.5 21.1875C46.9098 21.1875 45.7072 21.2281 41.9407 21.4C38.1821 21.5715 35.6151 22.1685 33.3688 23.0414C31.0467 23.9439 29.0774 25.1513 27.1143 27.1145C25.1511 29.0776 23.9436 31.047 23.0412 33.369C22.1683 35.6151 21.5715 38.1821 21.3998 41.9407C21.2281 45.7072 21.1875 46.9098 21.1875 56.5C21.1875 66.0902 21.2281 67.2928 21.3998 71.0593C21.5715 74.8179 22.1683 77.3849 23.0412 79.631C23.9436 81.953 25.1511 83.9224 27.1143 85.8857C29.0774 87.8489 31.0467 89.0564 33.3688 89.9588C35.6151 90.8315 38.1821 91.4285 41.9407 91.6C45.7072 91.7719 46.9098 91.8125 56.5 91.8125C66.0902 91.8125 67.2928 91.7719 71.0593 91.6C74.8179 91.4285 77.3849 90.8315 79.631 89.9588C81.953 89.0564 83.9224 87.8489 85.8857 85.8857C87.8489 83.9224 89.0564 81.953 89.9588 79.631C90.8315 77.3849 91.4285 74.8179 91.6 71.0593C91.7719 67.2928 91.8125 66.0902 91.8125 56.5C91.8125 46.9098 91.7719 45.7072 91.6 41.9407C91.4285 38.1821 90.8315 35.6151 89.9588 33.369C89.0564 31.047 87.8489 29.0776 85.8857 27.1145C83.9224 25.1513 81.953 23.9439 79.631 23.0414C77.3849 22.1685 74.8179 21.5715 71.0593 21.4C67.2928 21.2281 66.0902 21.1875 56.5 21.1875ZM56.5 27.5502C65.9289 27.5502 67.0456 27.5861 70.7693 27.7561C74.2123 27.9132 76.0819 28.4884 77.3262 28.9719C78.9746 29.6124 80.151 30.3778 81.3865 31.6135C82.6224 32.849 83.3876 34.0256 84.0281 35.6738C84.5116 36.9181 85.087 38.7877 85.2439 42.2307C85.4139 45.9544 85.4498 47.0711 85.4498 56.5C85.4498 65.9289 85.4139 67.0456 85.2439 70.7693C85.087 74.2123 84.5116 76.0819 84.0281 77.3262C83.3876 78.9746 82.6224 80.151 81.3865 81.3865C80.151 82.6224 78.9746 83.3876 77.3262 84.0281C76.0819 84.5116 74.2123 85.087 70.7693 85.2439C67.0463 85.4139 65.9295 85.4498 56.5 85.4498C47.0705 85.4498 45.9539 85.4139 42.2307 85.2439C38.7877 85.087 36.9181 84.5116 35.6738 84.0281C34.0254 83.3876 32.849 82.6224 31.6133 81.3865C30.3776 80.151 29.6124 78.9746 28.9719 77.3262C28.4884 76.0819 27.913 74.2123 27.7558 70.7693C27.5859 67.0456 27.5502 65.9289 27.5502 56.5C27.5502 47.0711 27.5859 45.9544 27.7558 42.2307C27.913 38.7877 28.4884 36.9181 28.9719 35.6738C29.6124 34.0256 30.3776 32.849 31.6133 31.6135C32.849 30.3778 34.0254 29.6124 35.6738 28.9719C36.9181 28.4884 38.7877 27.9132 42.2307 27.7561C45.9544 27.5861 47.0711 27.5502 56.5 27.5502ZM56.5 38.3666C46.4852 38.3666 38.3666 46.4852 38.3666 56.5C38.3666 66.5148 46.4852 74.6334 56.5 74.6334C66.5148 74.6334 74.6334 66.5148 74.6334 56.5C74.6334 46.4852 66.5148 38.3666 56.5 38.3666ZM56.5 68.2708C49.9992 68.2708 44.7292 63.0008 44.7292 56.5C44.7292 49.9992 49.9992 44.7292 56.5 44.7292C63.0008 44.7292 68.2708 49.9992 68.2708 56.5C68.2708 63.0008 63.0008 68.2708 56.5 68.2708ZM79.5875 37.6502C79.5875 39.9905 77.6901 41.8875 75.3498 41.8875C73.0097 41.8875 71.1125 39.9905 71.1125 37.6502C71.1125 35.3099 73.0097 33.4127 75.3498 33.4127C77.6901 33.4127 79.5875 35.3099 79.5875 37.6502Z" fill="#DF8E7A"></path> </g> <defs> <clipPath id="clip0_189_589"> <rect width="113" height="113" fill="white"></rect> </clipPath> </defs> </svg> 