<?xml version="1.0" encoding="UTF-8"?> <svg xmlns="http://www.w3.org/2000/svg" width="24" height="24" viewBox="0 0 24 24" fill="none"> <g clip-path="url(#clip0_160_58)"> <path d="M24 11.034C24 10.7057 23.9353 10.3806 23.8097 10.0773C23.6841 9.77398 23.4999 9.49838 23.2678 9.26624C23.0356 9.03409 22.76 8.84994 22.4567 8.7243C22.1534 8.59867 21.8283 8.534 21.5 8.534H15.189C15.1495 8.53392 15.1106 8.52449 15.0755 8.50649C15.0404 8.48848 15.01 8.46242 14.9869 8.43042C14.9638 8.39842 14.9485 8.36141 14.9425 8.3224C14.9364 8.2834 14.9397 8.24351 14.952 8.206C15.5041 6.80683 15.6833 5.28825 15.472 3.799C14.884 1.704 13.638 1.099 12.663 1.234C12.1841 1.31548 11.7513 1.56845 11.4453 1.94568C11.1392 2.32291 10.981 2.79863 11 3.284C11 6.03 8.871 9.03 6.966 10.345C6.8993 10.391 6.8448 10.4526 6.80717 10.5244C6.76954 10.5961 6.74992 10.676 6.75 10.757V20.873C6.74998 20.9891 6.79038 21.1017 6.86428 21.1913C6.93819 21.2809 7.04097 21.3419 7.155 21.364C7.512 21.433 7.836 21.499 8.142 21.564C9.48759 21.8846 10.8668 22.0427 12.25 22.035H18.75C20.707 22.035 21 20.935 21 20.285C21.0002 19.9402 20.9208 19.6001 20.768 19.291C21.2962 19.0234 21.6974 18.5583 21.8847 17.9966C22.0719 17.4349 22.03 16.822 21.768 16.291C22.1386 16.1027 22.4498 15.8156 22.6672 15.4614C22.8847 15.1071 22.9999 14.6996 23 14.284C23.0007 13.9094 22.9068 13.5407 22.727 13.212C23.1132 12.9944 23.4347 12.6781 23.6584 12.2953C23.8821 11.9126 24 11.4773 24 11.034V11.034Z" fill="#FDF5DF"></path> <path d="M5.25 10.7839C5.25 10.5187 5.14464 10.2644 4.95711 10.0768C4.76957 9.88929 4.51522 9.78394 4.25 9.78394H1C0.734784 9.78394 0.48043 9.88929 0.292893 10.0768C0.105357 10.2644 0 10.5187 0 10.7839L0 21.7839C0 22.0492 0.105357 22.3035 0.292893 22.491C0.48043 22.6786 0.734784 22.7839 1 22.7839H4.25C4.51522 22.7839 4.76957 22.6786 4.95711 22.491C5.14464 22.3035 5.25 22.0492 5.25 21.7839V10.7839ZM3.75 20.0339C3.75 20.1823 3.70601 20.3273 3.6236 20.4506C3.54119 20.5739 3.42406 20.6701 3.28701 20.7268C3.14997 20.7836 2.99917 20.7985 2.85368 20.7695C2.7082 20.7406 2.57456 20.6692 2.46967 20.5643C2.36478 20.4594 2.29335 20.3257 2.26441 20.1803C2.23547 20.0348 2.25032 19.884 2.30709 19.7469C2.36386 19.6099 2.45999 19.4927 2.58332 19.4103C2.70666 19.3279 2.85166 19.2839 3 19.2839C3.19891 19.2839 3.38968 19.363 3.53033 19.5036C3.67098 19.6443 3.75 19.835 3.75 20.0339Z" fill="#FDF5DF"></path> </g> <defs> <clipPath id="clip0_160_58"> <rect width="24" height="24" fill="white"></rect> </clipPath> </defs> </svg> 