<?xml version="1.0" encoding="UTF-8"?> <svg xmlns="http://www.w3.org/2000/svg" width="16" height="983" viewBox="0 0 16 983" fill="none"> <path d="M7.62834 981.854C7.8236 982.049 8.14018 982.049 8.33544 981.854L11.5174 978.672C11.7127 978.476 11.7127 978.16 11.5174 977.964C11.3222 977.769 11.0056 977.769 10.8103 977.964L7.98189 980.793L5.15346 977.964C4.9582 977.769 4.64162 977.769 4.44635 977.964C4.25109 978.16 4.25109 978.476 4.44635 978.672L7.62834 981.854ZM7.48198 0.500118L7.48198 6.48183L8.48198 6.48183L8.48198 0.500119L7.48198 0.500118ZM7.48198 18.4452L7.48198 30.4087L8.48198 30.4087L8.48198 18.4452L7.48198 18.4452ZM7.48198 42.3721L7.48198 54.3355L8.48198 54.3355L8.48198 42.3721L7.48198 42.3721ZM7.48197 66.2989L7.48197 78.2623L8.48197 78.2623L8.48197 66.2989L7.48197 66.2989ZM7.48197 90.2257L7.48197 102.189L8.48197 102.189L8.48197 90.2257L7.48197 90.2257ZM7.48197 114.153L7.48197 126.116L8.48197 126.116L8.48197 114.153L7.48197 114.153ZM7.48197 138.079L7.48197 150.043L8.48197 150.043L8.48197 138.079L7.48197 138.079ZM7.48197 162.006L7.48196 173.97L8.48196 173.97L8.48197 162.006L7.48197 162.006ZM7.48196 185.933L7.48196 197.896L8.48196 197.896L8.48196 185.933L7.48196 185.933ZM7.48196 209.86L7.48196 221.823L8.48196 221.823L8.48196 209.86L7.48196 209.86ZM7.48196 233.787L7.48196 245.75L8.48196 245.75L8.48196 233.787L7.48196 233.787ZM7.48196 257.713L7.48196 269.677L8.48196 269.677L8.48196 257.713L7.48196 257.713ZM7.48195 281.64L7.48195 293.604L8.48195 293.604L8.48195 281.64L7.48195 281.64ZM7.48195 305.567L7.48195 317.531L8.48195 317.531L8.48195 305.567L7.48195 305.567ZM7.48195 329.494L7.48195 341.457L8.48195 341.457L8.48195 329.494L7.48195 329.494ZM7.48195 353.421L7.48195 365.384L8.48195 365.384L8.48195 353.421L7.48195 353.421ZM7.48195 377.348L7.48194 389.311L8.48194 389.311L8.48195 377.348L7.48195 377.348ZM7.48194 401.274L7.48194 413.238L8.48194 413.238L8.48194 401.274L7.48194 401.274ZM7.48194 425.201L7.48194 437.165L8.48194 437.165L8.48194 425.201L7.48194 425.201ZM7.48194 449.128L7.48194 461.091L8.48194 461.091L8.48194 449.128L7.48194 449.128ZM7.48194 473.055L7.48194 485.018L8.48194 485.018L8.48194 473.055L7.48194 473.055ZM7.48193 496.982L7.48193 508.945L8.48193 508.945L8.48193 496.982L7.48193 496.982ZM7.48193 520.909L7.48193 532.872L8.48193 532.872L8.48193 520.909L7.48193 520.909ZM7.48193 544.835L7.48193 556.799L8.48193 556.799L8.48193 544.835L7.48193 544.835ZM7.48193 568.762L7.48193 580.726L8.48193 580.726L8.48193 568.762L7.48193 568.762ZM7.48193 592.689L7.48192 604.653L8.48192 604.653L8.48193 592.689L7.48193 592.689ZM7.48192 616.616L7.48192 628.579L8.48192 628.579L8.48192 616.616L7.48192 616.616ZM7.48192 640.543L7.48192 652.506L8.48192 652.506L8.48192 640.543L7.48192 640.543ZM7.48192 664.47L7.48192 676.433L8.48192 676.433L8.48192 664.47L7.48192 664.47ZM7.48192 688.397L7.48192 700.36L8.48192 700.36L8.48192 688.397L7.48192 688.397ZM7.48191 712.324L7.48191 724.287L8.48191 724.287L8.48191 712.324L7.48191 712.324ZM7.48191 736.25L7.48191 748.214L8.48191 748.214L8.48191 736.25L7.48191 736.25ZM7.48191 760.177L7.48191 772.141L8.48191 772.141L8.48191 760.177L7.48191 760.177ZM7.48191 784.104L7.48191 796.068L8.48191 796.068L8.48191 784.104L7.48191 784.104ZM7.4819 808.031L7.4819 819.994L8.4819 819.994L8.4819 808.031L7.4819 808.031ZM7.4819 831.958L7.4819 843.921L8.4819 843.921L8.4819 831.958L7.4819 831.958ZM7.4819 855.885L7.4819 867.848L8.4819 867.848L8.4819 855.885L7.4819 855.885ZM7.4819 879.812L7.4819 891.775L8.4819 891.775L8.4819 879.812L7.4819 879.812ZM7.4819 903.739L7.48189 915.702L8.48189 915.702L8.4819 903.739L7.4819 903.739ZM7.48189 927.665L7.48189 939.629L8.48189 939.629L8.48189 927.665L7.48189 927.665ZM7.48189 951.592L7.48189 963.556L8.48189 963.556L8.48189 951.592L7.48189 951.592ZM7.48189 975.519L7.48189 981.5L8.48189 981.5L8.48189 975.519L7.48189 975.519ZM7.27478 982.207C7.66531 982.598 8.29847 982.598 8.689 982.207L15.053 975.843C15.4435 975.453 15.4435 974.819 15.053 974.429C14.6624 974.038 14.0293 974.038 13.6387 974.429L7.98189 980.086L2.32503 974.429C1.93451 974.038 1.30135 974.038 0.910821 974.429C0.520297 974.819 0.520297 975.453 0.910821 975.843L7.27478 982.207ZM6.98198 0.500118L6.98198 6.48183L8.98198 6.48183L8.98198 0.500119L6.98198 0.500118ZM6.98198 18.4452L6.98198 30.4087L8.98198 30.4087L8.98198 18.4452L6.98198 18.4452ZM6.98198 42.3721L6.98198 54.3355L8.98198 54.3355L8.98198 42.3721L6.98198 42.3721ZM6.98197 66.2989L6.98197 78.2623L8.98197 78.2623L8.98197 66.2989L6.98197 66.2989ZM6.98197 90.2257L6.98197 102.189L8.98197 102.189L8.98197 90.2257L6.98197 90.2257ZM6.98197 114.153L6.98197 126.116L8.98197 126.116L8.98197 114.153L6.98197 114.153ZM6.98197 138.079L6.98197 150.043L8.98197 150.043L8.98197 138.079L6.98197 138.079ZM6.98197 162.006L6.98196 173.97L8.98196 173.97L8.98197 162.006L6.98197 162.006ZM6.98196 185.933L6.98196 197.896L8.98196 197.896L8.98196 185.933L6.98196 185.933ZM6.98196 209.86L6.98196 221.823L8.98196 221.823L8.98196 209.86L6.98196 209.86ZM6.98196 233.787L6.98196 245.75L8.98196 245.75L8.98196 233.787L6.98196 233.787ZM6.98196 257.713L6.98196 269.677L8.98196 269.677L8.98196 257.713L6.98196 257.713ZM6.98195 281.64L6.98195 293.604L8.98195 293.604L8.98195 281.64L6.98195 281.64ZM6.98195 305.567L6.98195 317.531L8.98195 317.531L8.98195 305.567L6.98195 305.567ZM6.98195 329.494L6.98195 341.457L8.98195 341.457L8.98195 329.494L6.98195 329.494ZM6.98195 353.421L6.98195 365.384L8.98195 365.384L8.98195 353.421L6.98195 353.421ZM6.98195 377.348L6.98194 389.311L8.98194 389.311L8.98195 377.348L6.98195 377.348ZM6.98194 401.274L6.98194 413.238L8.98194 413.238L8.98194 401.274L6.98194 401.274ZM6.98194 425.201L6.98194 437.165L8.98194 437.165L8.98194 425.201L6.98194 425.201ZM6.98194 449.128L6.98194 461.091L8.98194 461.091L8.98194 449.128L6.98194 449.128ZM6.98194 473.055L6.98194 485.018L8.98194 485.018L8.98194 473.055L6.98194 473.055ZM6.98193 496.982L6.98193 508.945L8.98193 508.945L8.98193 496.982L6.98193 496.982ZM6.98193 520.909L6.98193 532.872L8.98193 532.872L8.98193 520.909L6.98193 520.909ZM6.98193 544.835L6.98193 556.799L8.98193 556.799L8.98193 544.835L6.98193 544.835ZM6.98193 568.762L6.98193 580.726L8.98193 580.726L8.98193 568.762L6.98193 568.762ZM6.98193 592.689L6.98192 604.653L8.98192 604.653L8.98193 592.689L6.98193 592.689ZM6.98192 616.616L6.98192 628.579L8.98192 628.579L8.98192 616.616L6.98192 616.616ZM6.98192 640.543L6.98192 652.506L8.98192 652.506L8.98192 640.543L6.98192 640.543ZM6.98192 664.47L6.98192 676.433L8.98192 676.433L8.98192 664.47L6.98192 664.47ZM6.98192 688.397L6.98191 700.36L8.98192 700.36L8.98192 688.397L6.98192 688.397ZM6.98191 712.324L6.98191 724.287L8.98191 724.287L8.98191 712.324L6.98191 712.324ZM6.98191 736.25L6.98191 748.214L8.98191 748.214L8.98191 736.25L6.98191 736.25ZM6.98191 760.177L6.98191 772.141L8.98191 772.141L8.98191 760.177L6.98191 760.177ZM6.98191 784.104L6.98191 796.068L8.98191 796.068L8.98191 784.104L6.98191 784.104ZM6.9819 808.031L6.9819 819.994L8.9819 819.994L8.9819 808.031L6.9819 808.031ZM6.9819 831.958L6.9819 843.921L8.9819 843.921L8.9819 831.958L6.9819 831.958ZM6.9819 855.885L6.9819 867.848L8.9819 867.848L8.9819 855.885L6.9819 855.885ZM6.9819 879.812L6.9819 891.775L8.9819 891.775L8.9819 879.812L6.9819 879.812ZM6.9819 903.739L6.98189 915.702L8.98189 915.702L8.9819 903.739L6.9819 903.739ZM6.98189 927.665L6.98189 939.629L8.98189 939.629L8.98189 927.665L6.98189 927.665ZM6.98189 951.592L6.98189 963.556L8.98189 963.556L8.98189 951.592L6.98189 951.592ZM6.98189 975.519L6.98189 981.5L8.98189 981.5L8.98189 975.519L6.98189 975.519Z" fill="#8CA57D"></path> </svg> 