<?xml version="1.0" encoding="UTF-8"?> <svg xmlns="http://www.w3.org/2000/svg" viewBox="0 0 534.28 174.59"> <defs> <style>.cls-1{fill:#291b15;}</style> </defs> <g id="Слой_2" data-name="Слой 2"> <g id="Capa_1" data-name="Capa 1"> <path class="cls-1" d="M18.39,174.44l.22,0c8.66-1,13.72-10.1,18.61-18.66a91.42,91.42,0,0,1,7.09-11.15c6-7.62,17.31-16.83,26.56-19.21a29.83,29.83,0,0,1,6.25-1c8.73-.38,16.74,3,25.22,6.57a113.33,113.33,0,0,0,15.53,5.56c15.3,3.89,33,5.43,51.21,4.81,30.35-1.09,60-7.66,81.41-18.3a74.76,74.76,0,0,0,6.73-4.51c2.76-1.94,7.42-5.21,10-6.78l2.12,1.66c1.6,1.26,3.11,2.45,4.26,3.17,22.67,14.23,58.55,23.54,93.61,24.85,18.07.63,34.95-.89,50.18-4.86A109,109,0,0,0,432.75,131c8.38-3.59,16.29-7.07,24.05-6.73,12.3.55,23.79,7.95,35.14,23.48a111.16,111.16,0,0,1,6.14,9.7c4.78,8.18,9.3,16.08,17.79,17.09.45,0,.9.08,1.37.09,20.59.59,16.84-55,16.67-57.28C532,91.39,522.25,68.63,504,49.43,473.06,16.83,430.29,3.72,369.24.69,356.14,0,344.81-.17,334.62.16c-21.86.69-39.13,3.68-52.78,9.43-1.7.71-4.88,3-14.21,10.06l-.51.39A19.26,19.26,0,0,0,263,15.51C250.84,6.2,228.81,1.41,197.56.4,191,.18,184.05.15,177,.29,131.82,1.23,91.38,9.1,60,26.83,22.59,47.76,3.09,78.82.29,118.38c0,.32-2.77,41.31,9.22,52.92A10.88,10.88,0,0,0,18.39,174.44Z"></path> </g> </g> </svg> 