<?xml version="1.0" encoding="UTF-8"?> <svg xmlns="http://www.w3.org/2000/svg" viewBox="0 0 609.5 168.08"> <defs> <style>.cls-1{fill:#291b15;}</style> </defs> <g id="Слой_2" data-name="Слой 2"> <g id="Capa_1" data-name="Capa 1"> <path class="cls-1" d="M601.21,119C586,130.77,562,135.92,535.45,134.44c-29.23-1.66-56.81-10.23-71.93-22.13C447.29,99.48,439,84.12,430.18,68,423.4,55.65,416.39,43,405.39,31.81,384.09,10.13,349.42,0,305.14,0S226.19,10.15,204.89,31.83C194,42.87,187,55.52,180.18,67.9c-9.09,16.56-17.67,32.38-34.61,45.36-14.87,11.35-41.76,19.52-70.14,21.12-26.35,1.45-49.52-3.22-65.26-14.42a5,5,0,0,0-1.5-.7c-.28-.08-.56-.19-.8-.27A6.91,6.91,0,0,0,5,118.44a5.32,5.32,0,0,0-4.7,3.22c-1.23,3.15,1.34,5,2.14,5.62,43.3,32.41,101.06,43.51,158.49,40.18l.52,0c63.56-2.69,140.13-41.43,144-42.52C331,138.42,382,163.3,449.55,167.52l.52,0c30.38,1.75,61.23-.76,91.67-9,29.92-8.06,52.27-19.05,66.47-32.75a4.32,4.32,0,0,0-.16-6.3A5.33,5.33,0,0,0,601.21,119Z"></path> </g> </g> </svg> 