<?xml version="1.0" encoding="UTF-8"?> <svg xmlns="http://www.w3.org/2000/svg" width="325" height="115" viewBox="0 0 325 115" fill="none"> <path d="M95.8241 0H13.1759C5.89905 0 0 5.89905 0 13.1759V95.8241C0 103.101 5.89905 109 13.1759 109H95.8241C103.101 109 109 103.101 109 95.8241V13.1759C109 5.89905 103.101 0 95.8241 0Z" fill="#181513"></path> <path d="M76.3034 58.5196H80.3168C79.8189 60.4651 78.5736 62.1355 76.8514 63.1682C75.1291 64.2009 73.0689 64.5124 71.1184 64.0351C70.1517 63.8159 69.2382 63.407 68.4307 62.8322C67.6232 62.2574 66.9378 61.528 66.4142 60.6865C65.8906 59.8449 65.5392 58.9078 65.3803 57.9294C65.2214 56.951 65.2583 55.9509 65.4887 54.9868C65.915 53.3481 66.873 51.8972 68.2126 50.8615C69.5521 49.8258 71.1975 49.2639 72.8908 49.2639C74.584 49.2639 76.2294 49.8258 77.569 50.8615C78.9085 51.8972 79.8665 53.3481 80.2928 54.9868H76.3034C75.8174 54.0977 75.0016 53.4351 74.0318 53.1418C73.0619 52.8484 72.0156 52.9479 71.1184 53.4187C70.6755 53.6455 70.2823 53.9583 69.9618 54.3389C69.6413 54.7194 69.3998 55.16 69.2516 55.635C69.1033 56.1099 69.0513 56.6096 69.0984 57.1049C69.1456 57.6003 69.291 58.0812 69.5262 58.5196C69.859 59.1275 70.3492 59.6346 70.9454 59.9879C71.5415 60.3412 72.2218 60.5276 72.9148 60.5276C73.6078 60.5276 74.288 60.3412 74.8842 59.9879C75.4804 59.6346 75.9706 59.1275 76.3034 58.5196" fill="white"></path> <path d="M17.4836 45.6626C17.1743 45.987 16.9348 46.3714 16.7798 46.792C16.6248 47.2125 16.5576 47.6604 16.5824 48.108V49.9104H15.0984V53.4732H16.5824V63.633H20.4276V53.4732H23.7141V49.8984H20.4276V48.3002H23.7141V44.7674H20.001C19.5429 44.741 19.0841 44.8066 18.6518 44.9604C18.2194 45.1141 17.8222 45.3529 17.4836 45.6626" fill="white"></path> <path d="M48.6659 60.0817V54.416C48.6659 53.8452 48.6659 53.3045 48.6118 52.8238C48.5859 52.306 48.4486 51.7998 48.2092 51.3398C47.9361 50.8604 47.5143 50.4829 47.0076 50.2644C46.3719 49.996 45.6843 49.8728 44.9949 49.9039H36.4032V53.4727H44.2979C44.4764 53.4706 44.6542 53.4929 44.8267 53.5388V53.5388L43.6611 53.7371C42.9701 53.8632 42.2912 54.0195 41.6183 54.2117C40.9262 54.4084 40.2461 54.6451 39.5815 54.9207C38.922 55.19 38.3 55.5434 37.731 55.9721C37.1961 56.3864 36.7419 56.8955 36.3912 57.4742C36.0209 58.1013 35.8317 58.8188 35.8445 59.547C35.8316 60.2126 35.9954 60.8698 36.3191 61.4516C36.6193 61.9907 37.0285 62.4613 37.5207 62.8334C38.025 63.2112 38.5927 63.4961 39.197 63.6746C39.799 63.8556 40.4249 63.9447 41.0535 63.9389C41.7164 63.9461 42.3754 63.8363 43.0002 63.6145C43.5552 63.4167 44.0776 63.1372 44.5503 62.7854C44.7301 62.6507 44.9007 62.5042 45.061 62.3468C45.1156 62.4621 45.1799 62.5727 45.2532 62.6772C45.469 62.9727 45.7564 63.2084 46.0884 63.3621C46.5051 63.5495 46.9596 63.6379 47.4162 63.6205H50.234V60.0817H48.6659ZM44.8507 56.9394V57.4321C44.8388 57.7309 44.743 58.0203 44.5743 58.2672C44.3526 58.617 44.0744 58.9276 43.7512 59.1865C43.3891 59.478 42.9837 59.7112 42.5496 59.8774C42.1538 60.0441 41.7293 60.1318 41.2999 60.1358C41.0974 60.1371 40.8955 60.1129 40.699 60.0637C40.5141 60.0267 40.3358 59.9619 40.1703 59.8714C40.046 59.8052 39.9374 59.713 39.8519 59.601C39.7987 59.5351 39.7729 59.4512 39.7798 59.3667C39.7816 59.1917 39.8504 59.024 39.9721 58.8981C40.2012 58.6602 40.4644 58.4577 40.7531 58.2973C41.1378 58.0853 41.5398 57.9064 41.9548 57.7625C42.4174 57.5943 42.868 57.4441 43.3306 57.3179C43.7932 57.1918 44.2198 57.0836 44.6224 56.9935L44.8327 56.9514" fill="white"></path> <path d="M62.9835 50.9915C62.5993 50.6396 62.1476 50.3698 61.6557 50.1984C61.0459 49.995 60.4058 49.8975 59.7631 49.91H51.7122V63.6146H55.5333V53.4728H59.7871C59.906 53.4713 60.0241 53.4917 60.1356 53.5329V63.6447H63.9568V53.4308C63.9569 53.0074 63.8858 52.587 63.7465 52.1871C63.5908 51.7437 63.3312 51.3441 62.9895 51.0215" fill="white"></path> <path d="M93.6792 52.1449C93.5235 51.7001 93.2616 51.3 92.9162 50.9793C92.5383 50.6297 92.0925 50.3618 91.6064 50.1923C90.9998 49.9836 90.3611 49.884 89.7198 49.8979H85.5141V44.7549H81.6809V63.6025H85.5141V53.4307H89.7198C89.8406 53.4296 89.9606 53.4499 90.0743 53.4907V63.6025H93.9015V53.3886C93.901 52.9672 93.8299 52.5489 93.6912 52.1509" fill="white"></path> <path d="M32.2816 49.9099H34.9192V53.4727H28.6887C28.6934 53.0041 28.7904 52.5409 28.9741 52.1097C29.1578 51.6785 29.4247 51.2878 29.7594 50.9597C30.0942 50.6316 30.4903 50.3727 30.9251 50.1978C31.3599 50.0228 31.8249 49.9352 32.2936 49.94" fill="white"></path> <path d="M29.0253 49.9099H25.1921V63.6085H29.0253V49.9099Z" fill="white"></path> <path d="M143.618 39.25V40.2656C143.618 41.6621 143.436 42.9147 143.072 44.0234C142.708 45.1322 142.188 46.0758 141.511 46.8545C140.842 47.6331 140.038 48.2298 139.099 48.6445C138.159 49.0508 137.118 49.2539 135.976 49.2539C134.841 49.2539 133.805 49.0508 132.865 48.6445C131.934 48.2298 131.126 47.6331 130.44 46.8545C129.755 46.0758 129.222 45.1322 128.841 44.0234C128.468 42.9147 128.282 41.6621 128.282 40.2656V39.25C128.282 37.8535 128.468 36.6051 128.841 35.5049C129.213 34.3962 129.738 33.4525 130.415 32.6738C131.101 31.8867 131.909 31.29 132.84 30.8838C133.779 30.4691 134.816 30.2617 135.95 30.2617C137.093 30.2617 138.134 30.4691 139.073 30.8838C140.013 31.29 140.821 31.8867 141.498 32.6738C142.175 33.4525 142.696 34.3962 143.06 35.5049C143.432 36.6051 143.618 37.8535 143.618 39.25ZM140.432 40.2656V39.2246C140.432 38.1921 140.33 37.2822 140.127 36.4951C139.932 35.6995 139.64 35.0352 139.251 34.502C138.87 33.9603 138.4 33.554 137.842 33.2832C137.283 33.0039 136.653 32.8643 135.95 32.8643C135.248 32.8643 134.621 33.0039 134.071 33.2832C133.521 33.554 133.051 33.9603 132.662 34.502C132.281 35.0352 131.989 35.6995 131.786 36.4951C131.583 37.2822 131.481 38.1921 131.481 39.2246V40.2656C131.481 41.2982 131.583 42.2122 131.786 43.0078C131.989 43.8034 132.285 44.4762 132.675 45.0264C133.073 45.568 133.547 45.9785 134.097 46.2578C134.647 46.5286 135.273 46.6641 135.976 46.6641C136.687 46.6641 137.317 46.5286 137.867 46.2578C138.417 45.9785 138.883 45.568 139.264 45.0264C139.645 44.4762 139.932 43.8034 140.127 43.0078C140.33 42.2122 140.432 41.2982 140.432 40.2656ZM153.825 42.1064H149.014V39.5801H153.825C154.663 39.5801 155.34 39.4447 155.856 39.1738C156.373 38.903 156.749 38.5306 156.986 38.0566C157.232 37.5742 157.354 37.0241 157.354 36.4062C157.354 35.8223 157.232 35.2764 156.986 34.7686C156.749 34.2523 156.373 33.8376 155.856 33.5244C155.34 33.2113 154.663 33.0547 153.825 33.0547H149.991V49H146.805V30.5156H153.825C155.256 30.5156 156.47 30.7695 157.469 31.2773C158.476 31.7767 159.242 32.4707 159.767 33.3594C160.291 34.2396 160.554 35.2467 160.554 36.3809C160.554 37.5742 160.291 38.5983 159.767 39.4531C159.242 40.3079 158.476 40.9639 157.469 41.4209C156.47 41.8779 155.256 42.1064 153.825 42.1064ZM163.41 30.5156H169.948C171.353 30.5156 172.551 30.7272 173.541 31.1504C174.531 31.5736 175.289 32.1999 175.813 33.0293C176.347 33.8503 176.613 34.8659 176.613 36.0762C176.613 36.9987 176.444 37.8112 176.105 38.5137C175.767 39.2161 175.289 39.8086 174.671 40.291C174.053 40.765 173.317 41.1331 172.462 41.3955L171.497 41.8652H165.619L165.594 39.3389H169.999C170.761 39.3389 171.396 39.2035 171.903 38.9326C172.411 38.6618 172.792 38.2936 173.046 37.8281C173.308 37.3542 173.439 36.821 173.439 36.2285C173.439 35.5853 173.312 35.0267 173.059 34.5527C172.813 34.0703 172.432 33.7021 171.916 33.4482C171.4 33.1859 170.744 33.0547 169.948 33.0547H166.597V49H163.41V30.5156ZM173.96 49L169.618 40.6973L172.957 40.6846L177.362 48.835V49H173.96ZM186.985 32.9785L181.463 49H178.124L185.081 30.5156H187.214L186.985 32.9785ZM191.606 49L186.071 32.9785L185.83 30.5156H187.976L194.958 49H191.606ZM191.34 42.1445V44.6709H181.285V42.1445H191.34ZM207.742 42.9824H210.916C210.814 44.1927 210.476 45.2718 209.9 46.2197C209.325 47.1592 208.517 47.8997 207.476 48.4414C206.435 48.9831 205.169 49.2539 203.68 49.2539C202.537 49.2539 201.509 49.0508 200.595 48.6445C199.681 48.2298 198.898 47.6458 198.246 46.8926C197.594 46.1309 197.095 45.2126 196.748 44.1377C196.41 43.0628 196.24 41.861 196.24 40.5322V38.9961C196.24 37.6673 196.414 36.4655 196.761 35.3906C197.116 34.3158 197.624 33.3975 198.284 32.6357C198.944 31.8656 199.736 31.2773 200.658 30.8711C201.589 30.4648 202.634 30.2617 203.794 30.2617C205.267 30.2617 206.511 30.5326 207.526 31.0742C208.542 31.6159 209.329 32.3649 209.888 33.3213C210.455 34.2777 210.802 35.3737 210.929 36.6094H207.755C207.67 35.8138 207.484 35.1325 207.196 34.5654C206.917 33.9984 206.502 33.5667 205.952 33.2705C205.402 32.9658 204.683 32.8135 203.794 32.8135C203.066 32.8135 202.431 32.9489 201.89 33.2197C201.348 33.4906 200.895 33.8883 200.531 34.4131C200.167 34.9378 199.892 35.5853 199.706 36.3555C199.528 37.1172 199.439 37.9889 199.439 38.9707V40.5322C199.439 41.4632 199.52 42.3096 199.681 43.0713C199.85 43.8245 200.104 44.472 200.442 45.0137C200.789 45.5553 201.229 45.9743 201.763 46.2705C202.296 46.5667 202.935 46.7148 203.68 46.7148C204.585 46.7148 205.317 46.571 205.876 46.2832C206.443 45.9954 206.87 45.5765 207.158 45.0264C207.454 44.4678 207.649 43.7865 207.742 42.9824ZM228.55 39.25V40.2656C228.55 41.6621 228.368 42.9147 228.004 44.0234C227.64 45.1322 227.119 46.0758 226.442 46.8545C225.774 47.6331 224.97 48.2298 224.03 48.6445C223.091 49.0508 222.05 49.2539 220.907 49.2539C219.773 49.2539 218.736 49.0508 217.797 48.6445C216.866 48.2298 216.058 47.6331 215.372 46.8545C214.687 46.0758 214.153 45.1322 213.772 44.0234C213.4 42.9147 213.214 41.6621 213.214 40.2656V39.25C213.214 37.8535 213.4 36.6051 213.772 35.5049C214.145 34.3962 214.67 33.4525 215.347 32.6738C216.032 31.8867 216.84 31.29 217.771 30.8838C218.711 30.4691 219.748 30.2617 220.882 30.2617C222.024 30.2617 223.065 30.4691 224.005 30.8838C224.944 31.29 225.753 31.8867 226.43 32.6738C227.107 33.4525 227.627 34.3962 227.991 35.5049C228.364 36.6051 228.55 37.8535 228.55 39.25ZM225.363 40.2656V39.2246C225.363 38.1921 225.262 37.2822 225.059 36.4951C224.864 35.6995 224.572 35.0352 224.183 34.502C223.802 33.9603 223.332 33.554 222.773 33.2832C222.215 33.0039 221.584 32.8643 220.882 32.8643C220.179 32.8643 219.553 33.0039 219.003 33.2832C218.453 33.554 217.983 33.9603 217.594 34.502C217.213 35.0352 216.921 35.6995 216.718 36.4951C216.515 37.2822 216.413 38.1921 216.413 39.2246V40.2656C216.413 41.2982 216.515 42.2122 216.718 43.0078C216.921 43.8034 217.217 44.4762 217.606 45.0264C218.004 45.568 218.478 45.9785 219.028 46.2578C219.578 46.5286 220.205 46.6641 220.907 46.6641C221.618 46.6641 222.249 46.5286 222.799 46.2578C223.349 45.9785 223.814 45.568 224.195 45.0264C224.576 44.4762 224.864 43.8034 225.059 43.0078C225.262 42.2122 225.363 41.2982 225.363 40.2656ZM236.37 44.8486L240.052 30.5156H241.981L241.766 34.21L237.83 49H235.824L236.37 44.8486ZM233.615 30.5156L236.599 44.7344L236.865 49H234.732L230.454 30.5156H233.615ZM246.158 44.6963L249.104 30.5156H252.277L247.999 49H245.866L246.158 44.6963ZM242.73 30.5156L246.374 44.8867L246.907 49H244.901L241.029 34.21L240.826 30.5156H242.73ZM261.278 32.9785L255.756 49H252.417L259.374 30.5156H261.507L261.278 32.9785ZM265.899 49L260.364 32.9785L260.123 30.5156H262.269L269.251 49H265.899ZM265.633 42.1445V44.6709H255.578V42.1445H265.633ZM285.983 30.5156V49H282.797L274.507 35.7588V49H271.32V30.5156H274.507L282.822 43.7822V30.5156H285.983ZM291.188 30.5156L295.479 39.3389L299.771 30.5156H303.3L297.079 42.1953V49H293.867V42.1953L287.646 30.5156H291.188ZM135.899 72.1064H131.088V69.5801H135.899C136.737 69.5801 137.414 69.4447 137.931 69.1738C138.447 68.903 138.824 68.5306 139.061 68.0566C139.306 67.5742 139.429 67.0241 139.429 66.4062C139.429 65.8223 139.306 65.2764 139.061 64.7686C138.824 64.2523 138.447 63.8376 137.931 63.5244C137.414 63.2113 136.737 63.0547 135.899 63.0547H132.065V79H128.879V60.5156H135.899C137.33 60.5156 138.544 60.7695 139.543 61.2773C140.55 61.7767 141.316 62.4707 141.841 63.3594C142.366 64.2396 142.628 65.2467 142.628 66.3809C142.628 67.5742 142.366 68.5983 141.841 69.4531C141.316 70.3079 140.55 70.9639 139.543 71.4209C138.544 71.8779 137.33 72.1064 135.899 72.1064ZM145.484 60.5156H152.022C153.427 60.5156 154.625 60.7272 155.615 61.1504C156.605 61.5736 157.363 62.1999 157.888 63.0293C158.421 63.8503 158.688 64.8659 158.688 66.0762C158.688 66.9987 158.518 67.8112 158.18 68.5137C157.841 69.2161 157.363 69.8086 156.745 70.291C156.127 70.765 155.391 71.1331 154.536 71.3955L153.571 71.8652H147.693L147.668 69.3389H152.073C152.835 69.3389 153.47 69.2035 153.978 68.9326C154.485 68.6618 154.866 68.2936 155.12 67.8281C155.382 67.3542 155.514 66.821 155.514 66.2285C155.514 65.5853 155.387 65.0267 155.133 64.5527C154.887 64.0703 154.507 63.7021 153.99 63.4482C153.474 63.1859 152.818 63.0547 152.022 63.0547H148.671V79H145.484V60.5156ZM156.034 79L151.692 70.6973L155.031 70.6846L159.437 78.835V79H156.034ZM174.785 76.4736V79H161.95V76.4736H174.785ZM174.493 62.4834L163.131 79H160.998V76.9814L172.398 60.5156H174.493V62.4834ZM173.312 60.5156V63.0547H161.074V60.5156H173.312ZM189.651 76.4736V79H179.838V76.4736H189.651ZM180.739 60.5156V79H177.553V60.5156H180.739ZM188.369 68.2344V70.7227H179.838V68.2344H188.369ZM189.588 60.5156V63.0547H179.838V60.5156H189.588ZM205.178 76.4736V79H192.343V76.4736H205.178ZM204.886 62.4834L193.523 79H191.391V76.9814L202.791 60.5156H204.886V62.4834ZM203.705 60.5156V63.0547H191.467V60.5156H203.705ZM217.606 60.5156V79H214.42V60.5156H217.606ZM225.147 68.6025V71.1289H216.794V68.6025H225.147ZM226.201 60.5156V63.0547H216.794V60.5156H226.201ZM232.143 60.5156V79H228.956V60.5156H232.143ZM236.104 60.5156H242.642C244.047 60.5156 245.244 60.7272 246.234 61.1504C247.225 61.5736 247.982 62.1999 248.507 63.0293C249.04 63.8503 249.307 64.8659 249.307 66.0762C249.307 66.9987 249.137 67.8112 248.799 68.5137C248.46 69.2161 247.982 69.8086 247.364 70.291C246.746 70.765 246.01 71.1331 245.155 71.3955L244.19 71.8652H238.312L238.287 69.3389H242.692C243.454 69.3389 244.089 69.2035 244.597 68.9326C245.104 68.6618 245.485 68.2936 245.739 67.8281C246.002 67.3542 246.133 66.821 246.133 66.2285C246.133 65.5853 246.006 65.0267 245.752 64.5527C245.507 64.0703 245.126 63.7021 244.609 63.4482C244.093 63.1859 243.437 63.0547 242.642 63.0547H239.29V79H236.104V60.5156ZM246.653 79L242.312 70.6973L245.65 70.6846L250.056 78.835V79H246.653ZM253.775 60.5156H256.619L261.964 74.7725L267.296 60.5156H270.14L263.081 79H260.821L253.775 60.5156ZM252.48 60.5156H255.185L255.654 72.8555V79H252.48V60.5156ZM268.73 60.5156H271.447V79H268.261V72.8555L268.73 60.5156ZM287.329 76.4736V79H277.516V76.4736H287.329ZM278.417 60.5156V79H275.23V60.5156H278.417ZM286.047 68.2344V70.7227H277.516V68.2344H286.047ZM287.266 60.5156V63.0547H277.516V60.5156H287.266ZM284.384 78.2637L285.844 79C285.446 79.2539 285.09 79.5078 284.777 79.7617C284.473 80.0241 284.231 80.2992 284.054 80.5869C283.876 80.8831 283.787 81.2005 283.787 81.5391C283.787 81.793 283.855 82.0003 283.99 82.1611C284.126 82.3304 284.363 82.415 284.701 82.415C284.955 82.415 285.175 82.377 285.361 82.3008C285.548 82.2331 285.7 82.1696 285.818 82.1104L286.123 83.875C285.911 84.002 285.636 84.1247 285.298 84.2432C284.968 84.3701 284.553 84.4336 284.054 84.4336C283.3 84.4336 282.666 84.2178 282.149 83.7861C281.633 83.3545 281.375 82.724 281.375 81.8945C281.375 81.4544 281.472 81.0186 281.667 80.5869C281.862 80.1637 282.179 79.7533 282.619 79.3555C283.059 78.9661 283.647 78.6022 284.384 78.2637Z" fill="black"></path> </svg> 