<?xml version="1.0" encoding="UTF-8"?> <svg xmlns="http://www.w3.org/2000/svg" width="448" height="385" viewBox="0 0 448 385" fill="none"> <path d="M393.3 261.8C351.9 246.1 354.4 252.4 354.4 223.3C354.4 204.5 363.7 211.4 369.6 175.6C371.9 161.5 373.8 170.9 378.7 148.3C381.3 136.5 376.9 135.6 377.5 130C378 124.4 378.5 119.3 379.5 107.8C380.7 93.4 367.9 55.8 322.1 55.8C276.3 55.8 263.5 93.4 264.7 107.8C265.6 119.4 266.2 124.4 266.7 130C267.2 135.6 262.9 136.5 265.5 148.3C270.4 170.9 272.3 161.4 274.6 175.6C280.5 211.4 289.7 204.6 289.7 223.3C289.7 236.7 292.8 242.3 274.8 250.8C280.2 252.7 286.5 255 294.1 257.9C348.5 278.6 347.2 298.7 348.6 308.2C349.6 314.7 350.1 366.5 350.3 385H448C448 385 448 304.5 446.5 295.1C445.4 287.7 435.5 277.9 393.3 261.8Z" fill="#8CA57D"></path> <path d="M325 385C325 385 325 370.9 324.8 354.6C324.6 336 324.1 314.6 323.1 308.2C321.6 298.7 308.8 286 254.5 265.3C247 262.5 240.7 260.2 235.2 258.2C201.9 246.4 204.3 242.5 204.3 210.2C204.3 185.9 216.3 201.7 223.9 155.6C226.9 137.4 229.3 149.5 235.6 120.4C239 105.2 233.3 104 234 96.7C234.7 89.4 235.4 82.9 236.6 68C238.2 49.5 221.7 0.900024 162.5 0.900024C103.3 0.900024 86.9 49.4 88.4 68C89.6 82.9 90.3 89.4 91.1 96.7C91.8 104 86.1 105.1 89.5 120.4C95.9 149.5 98.3 137.4 101.3 155.6C108.9 201.7 120.8 185.9 120.8 210.2C120.8 247.8 124.1 245 70.6 265.3C16.3 286 3.5 298.7 2 308.2C0 320.3 0 385 0 385H162.5H325Z" fill="#8CA57D"></path> </svg> 