<?xml version="1.0" encoding="UTF-8"?> <svg xmlns="http://www.w3.org/2000/svg" width="512" height="512" viewBox="0 0 512 512" fill="none"> <g clip-path="url(#clip0_189_592)"> <path fill-rule="evenodd" clip-rule="evenodd" d="M256 0C397.39 0 512 114.61 512 256C512 397.39 397.39 512 256 512C114.61 512 0 397.39 0 256C0 114.61 114.61 0 256 0ZM313.5 106.01C313.51 110.59 314.86 176.84 384.37 180.97C384.37 200.07 384.39 213.92 384.39 232.15C379.13 232.45 338.63 229.51 313.42 207.03L313.34 306.67C314.3 375.83 263.41 417.91 196.88 403.37C82.17 369.06 120.29 198.93 235.47 217.13C235.47 272.06 235.5 217.12 235.5 272.06C187.92 265.06 172 304.64 184.65 332.99C196.15 358.79 243.53 364.38 260.06 327.98C261.93 320.86 262.86 312.73 262.86 303.61V105.76L313.5 106.01Z" fill="#DF8E7A"></path> </g> <defs> <clipPath id="clip0_189_592"> <rect width="512" height="512" fill="white"></rect> </clipPath> </defs> </svg> 