<?xml version="1.0" encoding="UTF-8"?> <svg xmlns="http://www.w3.org/2000/svg" width="24" height="24" viewBox="0 0 24 24" fill="none"> <g clip-path="url(#clip0_14_64)"> <path d="M20.5 0.304993H3.5C2.57457 0.314111 1.68962 0.685787 1.03521 1.3402C0.380795 1.99461 0.00911822 2.87956 0 3.80499L0 16.805C0.0352283 17.762 0.374824 18.6828 0.969399 19.4334C1.56397 20.1841 2.38252 20.7256 3.306 20.979L14.465 23.6C14.8897 23.7099 15.3337 23.7231 15.7641 23.6384C16.1946 23.5538 16.6005 23.3735 16.952 23.111C17.2919 22.8328 17.5632 22.4801 17.7449 22.0802C17.9266 21.6803 18.0139 21.244 18 20.805V11.113C17.9984 10.183 17.6927 9.27894 17.1296 8.53874C16.5666 7.79853 15.7769 7.26273 14.881 7.01299L4.056 4.02799C3.96105 4.00173 3.87221 3.95702 3.79454 3.89642C3.71688 3.83582 3.65191 3.76052 3.60334 3.67481C3.55478 3.5891 3.52357 3.49467 3.5115 3.3969C3.49943 3.29913 3.50674 3.19994 3.533 3.10499C3.55926 3.01005 3.60397 2.9212 3.66457 2.84354C3.72517 2.76587 3.80047 2.7009 3.88618 2.65233C3.97189 2.60377 4.06633 2.57256 4.1641 2.56049C4.26187 2.54842 4.36105 2.55573 4.456 2.58199L7.99 3.55699H8.002H20.5C20.6989 3.55699 20.8897 3.63601 21.0303 3.77666C21.171 3.91731 21.25 4.10808 21.25 4.30699C21.25 4.50591 21.171 4.69667 21.0303 4.83732C20.8897 4.97797 20.6989 5.05699 20.5 5.05699H15.265C15.2045 5.05687 15.1459 5.07871 15.1003 5.11847C15.0546 5.15823 15.025 5.21321 15.0168 5.27319C15.0086 5.33318 15.0224 5.39409 15.0558 5.44463C15.0891 5.49517 15.1396 5.5319 15.198 5.54799L15.284 5.57199C16.4232 5.88838 17.4364 6.55007 18.184 7.46599C18.2078 7.49438 18.2374 7.51723 18.2709 7.53295C18.3044 7.54867 18.341 7.55688 18.378 7.55699H20.5C20.6989 7.55699 20.8897 7.63601 21.0303 7.77666C21.171 7.91732 21.25 8.10808 21.25 8.30699C21.25 8.5059 21.171 8.69667 21.0303 8.83732C20.8897 8.97797 20.6989 9.05699 20.5 9.05699H19.462C19.4225 9.05675 19.3835 9.06591 19.3482 9.08373C19.3129 9.10155 19.2824 9.12751 19.2591 9.15946C19.2359 9.19141 19.2206 9.22844 19.2145 9.26748C19.2084 9.30653 19.2116 9.34646 19.224 9.38399C19.4078 9.94269 19.5027 10.5268 19.505 11.115V18.057C19.505 18.1233 19.5313 18.1869 19.5782 18.2338C19.6251 18.2807 19.6887 18.307 19.755 18.307H20.5C21.4283 18.307 22.3185 17.9382 22.9749 17.2819C23.6313 16.6255 24 15.7353 24 14.807V3.80699C24.0003 3.3472 23.9099 2.89186 23.7342 2.46699C23.5584 2.04212 23.3006 1.65604 22.9756 1.33083C22.6505 1.00561 22.2646 0.747622 21.8399 0.571606C21.4151 0.395589 20.9598 0.304993 20.5 0.304993V0.304993ZM15.5 15.305C15.5 15.7006 15.3827 16.0872 15.1629 16.4161C14.9432 16.745 14.6308 17.0014 14.2654 17.1528C13.8999 17.3041 13.4978 17.3437 13.1098 17.2666C12.7219 17.1894 12.3655 16.9989 12.0858 16.7192C11.8061 16.4395 11.6156 16.0831 11.5384 15.6952C11.4613 15.3072 11.5009 14.9051 11.6522 14.5396C11.8036 14.1742 12.06 13.8618 12.3889 13.6421C12.7178 13.4223 13.1044 13.305 13.5 13.305C14.0304 13.305 14.5391 13.5157 14.9142 13.8908C15.2893 14.2659 15.5 14.7746 15.5 15.305Z" fill="#8CA57D"></path> </g> <defs> <clipPath id="clip0_14_64"> <rect width="24" height="24" fill="white"></rect> </clipPath> </defs> </svg> 